HIERARCHY
ROOT Hips
{
    OFFSET 0.000000 0.000000 0.000000
    CHANNELS 6 Xposition Yposition Zposition Zrotation Xrotation Yrotation
    JOINT Spine
    {
        OFFSET -0.000000 0.084000 0.000000
        CHANNELS 3 Zrotation Xrotation Yrotation
        JOINT Spine1
        {
            OFFSET -0.000000 0.216247 0.000000
            CHANNELS 3 Zrotation Xrotation Yrotation
            JOINT Neck
            {
                OFFSET -0.000000 0.215359 0.019578
                CHANNELS 3 Zrotation Xrotation Yrotation
                JOINT Head
                {
                    OFFSET -0.000000 0.143414 -0.020488
                    CHANNELS 3 Zrotation Xrotation Yrotation
                    End Site
                    {
                        OFFSET -0.000000 0.204877 0.000000
                    }
                }
            }
            JOINT LeftShoulder
            {
                OFFSET 0.040109 0.191272 -0.003631
                CHANNELS 3 Zrotation Xrotation Yrotation
                JOINT LeftArm
                {
                    OFFSET 0.138349 0.000000 0.000000
                    CHANNELS 3 Zrotation Xrotation Yrotation
                    JOINT LeftForeArm
                    {
                        OFFSET 0.335349 0.000000 0.000000
                        CHANNELS 3 Zrotation Xrotation Yrotation
                        JOINT LeftHand
                        {
                            OFFSET 0.276368 0.000000 0.000000
                            CHANNELS 3 Zrotation Xrotation Yrotation
                            End Site
                            {
                                OFFSET 0.153658 0.000000 0.000000
                            }
                        }
                    }
                }
            }
            JOINT RightShoulder
            {
                OFFSET -0.041533 0.191272 -0.003631
                CHANNELS 3 Zrotation Xrotation Yrotation
                JOINT RightArm
                {
                    OFFSET -0.138349 0.000000 0.000000
                    CHANNELS 3 Zrotation Xrotation Yrotation
                    JOINT RightForeArm
                    {
                        OFFSET -0.335349 0.000000 0.000000
                        CHANNELS 3 Zrotation Xrotation Yrotation
                        JOINT RightHand
                        {
                            OFFSET -0.276368 0.000000 0.000000
                            CHANNELS 3 Zrotation Xrotation Yrotation
                            End Site
                            {
                                OFFSET -0.153658 0.000000 0.000000
                            }
                        }
                    }
                }
            }
        }
    }
    JOINT LeftUpLeg
    {
        OFFSET 0.102438 0.000000 0.000000
        CHANNELS 3 Zrotation Xrotation Yrotation
        JOINT LeftLeg
        {
            OFFSET -0.000000 -0.442852 0.000000
            CHANNELS 3 Zrotation Xrotation Yrotation
            JOINT LeftFoot
            {
                OFFSET -0.000000 -0.461647 0.000000
                CHANNELS 3 Zrotation Xrotation Yrotation
                JOINT LeftToeBase
                {
                    OFFSET -0.000000 -0.066585 0.153658
                    CHANNELS 3 Zrotation Xrotation Yrotation
                    End Site
                    {
                        OFFSET -0.000000 0.000000 0.040975
                    }
                }
            }
        }
    }
    JOINT RightUpLeg
    {
        OFFSET -0.102438 0.000000 0.000000
        CHANNELS 3 Zrotation Xrotation Yrotation
        JOINT RightLeg
        {
            OFFSET -0.000000 -0.442852 0.000000
            CHANNELS 3 Zrotation Xrotation Yrotation
            JOINT RightFoot
            {
                OFFSET -0.000000 -0.461647 0.000000
                CHANNELS 3 Zrotation Xrotation Yrotation
                JOINT RightToeBase
                {
                    OFFSET -0.000000 -0.066585 0.153658
                    CHANNELS 3 Zrotation Xrotation Yrotation
                    End Site
                    {
                        OFFSET -0.000000 0.000000 0.040975
                    }
                }
            }
        }
    }
}
MOTION
Frames:    5
Frame Time:    0.010000
-0.529112    0.479068    0.191144    -3.504488    -7.978045    -5.462304    -2.279526    21.929911    0.635121    4.770360    18.069641    -0.654328    -20.504604    46.668915    8.667489    12.314892    -38.509068    8.178912    9.486234    6.747264    -7.222118    -3.860981    6.738760    -6.947887    -2.704194    -41.556026    -77.021599    9.978523    -42.573128    8.961959    -18.347494    2.363078    25.496027    9.495419    -8.770821    -6.001123    10.883143    -37.046211    85.068787    -29.656420    -38.582325    -29.833975    155.267380    -71.978333    134.838806    -134.647217    64.372978    116.397346    5.743372    -16.116335    8.130098    0.000000    0.000000    0.000000    170.428909    -75.301208    173.320435    140.994507    74.490944    -143.986313    -14.533834    -10.147055    -5.833055    0.000000    0.000000    0.000000    
-0.529232    0.479441    0.191517    -3.507729    -7.977870    -5.459313    -2.304956    22.064568    0.596060    4.801096    17.557955    -0.653697    -20.550179    47.056240    8.890910    12.068776    -38.499386    8.182333    9.961457    7.119552    -6.930041    -3.681394    6.584373    -5.463494    -2.686494    -41.167862    -75.399307    9.196252    -42.215954    8.375339    -19.208265    2.777979    25.004057    8.924918    -9.264088    -7.033838    10.604117    -36.912895    82.875328    -29.440760    -38.189117    -29.002335    155.178238    -71.995934    134.819443    -134.710815    64.436699    116.418869    5.744945    -16.112745    8.110267    0.000000    0.000000    0.000000    170.365311    -75.326180    173.221207    141.163681    74.485535    -144.094986    -14.551675    -10.162453    -5.900028    0.000000    0.000000    0.000000    
-0.529353    0.479844    0.191905    -3.514866    -7.977023    -5.457384    -2.330795    22.194193    0.554132    4.829705    17.042658    -0.653494    -20.570896    47.470448    9.106254    11.795206    -38.484478    8.164898    10.449918    7.506823    -6.653787    -3.500210    6.424107    -4.051167    -2.622998    -40.770214    -73.643257    8.287396    -41.825706    7.729630    -20.054537    3.206103    24.531403    8.356135    -9.720882    -7.995460    10.204050    -36.760998    80.476379    -28.631058    -37.910542    -27.731606    155.072327    -72.012924    134.776093    -134.867783    64.459869    116.511757    5.767219    -16.142004    8.150389    0.000000    0.000000    0.000000    170.307297    -75.355232    173.126038    141.319519    74.478188    -144.184525    -14.570639    -10.178552    -5.969448    0.000000    0.000000    0.000000    
-0.529472    0.480282    0.192308    -3.526249    -7.975543    -5.456732    -2.356003    22.318275    0.509989    4.854422    16.526522    -0.652983    -20.564358    47.911835    9.311705    11.494994    -38.467075    8.126341    10.953453    7.911840    -6.392667    -3.321733    6.247992    -2.719802    -2.520597    -40.359947    -71.767075    7.283860    -41.400341    7.048592    -20.877789    3.646627    24.081404    7.792334    -10.134044    -8.883355    9.686584    -36.586727    77.891518    -27.295055    -37.711765    -26.068268    154.935318    -72.043816    134.698471    -135.012726    64.476791    116.580498    5.815430    -16.215590    8.234044    0.000000    0.000000    0.000000    170.257889    -75.389168    173.038879    141.455399    74.468246    -144.247391    -14.590688    -10.194300    -6.041628    0.000000    0.000000    0.000000    
-0.529586    0.480757    0.192722    -3.542029    -7.973410    -5.457550    -2.379348    22.435499    0.463712    4.873025    16.014091    -0.651283    -20.526552    48.381516    9.505254    11.166228    -38.452717    8.065858    11.473301    8.336429    -6.145831    -3.149852    6.046227    -1.475992    -2.390586    -39.933708    -69.788422    6.230078    -40.940304    6.357618    -21.669708    4.097983    23.657732    7.236901    -10.495775    -9.696063    9.076126    -36.390896    75.160545    -25.602873    -37.540909    -24.122938    154.790848    -72.059830    134.599960    -135.144150    64.487389    116.623894    5.845743    -16.242870    8.284201    0.000000    0.000000    0.000000    170.219482    -75.428772    172.962631    141.567230    74.455574    -144.278671    -14.611710    -10.209905    -6.116734    0.000000    0.000000    0.000000    
